<svg xmlns="http://www.w3.org/2000/svg" xmlns:xlink="http://www.w3.org/1999/xlink" viewBox="0,0,256,256" width="50px" height="50px" fill-rule="nonzero"><g fill="#faac1d" fill-rule="nonzero" stroke="none" stroke-width="1" stroke-linecap="butt" stroke-linejoin="miter" stroke-miterlimit="10" stroke-dasharray="" stroke-dashoffset="0" font-family="none" font-weight="none" font-size="none" text-anchor="none" style="mix-blend-mode: normal"><g transform="scale(5.12,5.12)"><path d="M25,2c-12.683,0 -23,10.317 -23,23c0,12.683 10.317,23 23,23c12.683,0 23,-10.317 23,-23c0,-12.683 -10.317,-23 -23,-23zM25,28c-0.462,0 -0.895,-0.113 -1.286,-0.3l-6.007,6.007c-0.195,0.195 -0.451,0.293 -0.707,0.293c-0.256,0 -0.512,-0.098 -0.707,-0.293c-0.391,-0.391 -0.391,-1.023 0,-1.414l6.007,-6.007c-0.187,-0.391 -0.3,-0.824 -0.3,-1.286c0,-1.304 0.837,-2.403 2,-2.816v-14.184c0,-0.553 0.447,-1 1,-1c0.553,0 1,0.447 1,1v14.184c1.163,0.413 2,1.512 2,2.816c0,1.657 -1.343,3 -3,3z"></path></g></g></svg>